<svg width="65" height="54" viewBox="0 0 65 54" fill="none" xmlns="http://www.w3.org/2000/svg"><path d="M55.251 29.139c-2.386-.548-4.04-1.76-5.923-3.237-1.121-.878-4.184-1.77-4.825-3.11.104-.703.603-1.39 1.342-1.602.8-.23 1.954-.29 2.756-.007.889.316 1.824.719 2.786.564.551-.09.983-.553.9-1.135-.178-1.229-.818-1.756-2.005-1.494-1.156.255-1.998 1.042-3.254.215-.524-.344-.954-.306-1.558-.228l-1.053-1.483a4.7 4.7 0 0 1 1.297-1.401c.388-.304.843-.544 1.26-.806.805-.507 1.32-1.1 1.65-1.991.384-1.04 1.056-1.183 1.729-1.935.272-.304.64-.94.6-1.381-.097-1.072-1.255-.668-1.9-.332-.474.247-.877.678-1.174 1.113-.3.437-.577.877-.912 1.29-.756.935-2.027.926-3.073 1.007-.82.063-1.48.31-2.2.7-2.16 1.171-2.654-.282-3.146-1.84-.926-2.925 1.07-5.677 2.288-8.215.366-.763 1.445-3.458-.53-2.655-1.168.475-1.447 1.44-1.502 2.62-.102 2.17-1.567 7.159-4.51 6.839-.715-.078-1.2-.223-1.9-.011-.13.038-.384.198-.25.364.352.439 1.34 1.312-.71.695-.819-.246-1.55-.878-2.033-1.564-.916-1.305-.364-3.123-1.158-4.517-.137-.242-.68-.033-.643.235.143 1.054.475 1.946.345 2.958-1.813-1.528-1.648-4.173-2.818-6.133-.34-.572-1.818-2.268-2.458-.959-.415.85-.032 1.417.57 2.083.986 1.091 1.967 1.939 2.638 3.3.639 1.294.803 3.01.689 4.424-.044.55-.397 1.028-.476 1.562-.124.845-.117 1.688-.238 2.525-.152.014-.34.058-.417.138-1.697-.8-2.943-3.657-4.942-2.764-.104.046-.276.21-.162.333.563.604 5.41 2.903 4.24 3.695l-.025-.014c-.11-.066-.666.034-.652.202v.025c-.14.027-.41.132-.348.322.148.451.223.863.19 1.3l-.03.069a2.2 2.2 0 0 0-.702-.074c-.604-.206-1.255-.038-1.653.645-.036.062.078.068.11.07-.492.313-.99.63-1.025.607-.117-.077-.32-.036-.46.049-.06.001-.12.007-.182.007-.394.01-.789-.009-1.182-.025-.749-.03-1.495-.107-2.24-.18-1.057-.106-2.11-.227-3.175-.151-.61.042-1.394.079-1.917.448-.885.626.671 1.456 1.125 1.72.878.51 2.152.887 3.164.616.184-.05.403-.165.503-.332.192-.319.598-1.402 1.268-.824.248.215.35.423.706.491 1.675.322 3.336-.422 5.029.184 1.003.36 1.286 1.414 1.445 2.349.283 1.663-.584 2.491-2.122 2.794-1.367.27-2.24 1.175-3.234 2.115-1.503 1.423-4.14 1.52-5.27 3.337-1.092 1.758 1.987 2.37 3.045 1.517.568-.458.896-1.051 1.264-1.676.458-.777.858-1.078 1.58-1.626.54-.41 1.031-1.02 1.795-.843.13.03.364.088.532.072a2.5 2.5 0 0 0 1.069-.356c.836-.5 2.546-3.686 3.145-1.308.363 1.437-.768 3.043-1.648 4.052-.563.646-2.366 3.031-.247 2.826 1.63-.158 1.505-1.95 2.093-3.149.031.41.008.807-.053 1.197-.608.73-.692 2.135-1.065 2.928-.043.091.58.04.66-.123.459-.93.87-1.845 1.05-2.805.348-.425.956-.631 1.561-.806-.223.841-.84 1.18-1.543 2.038-.455.556-.061.885.553.886.794 0 1.224-.695 1.58-1.3.051-.087.615-1.203.905-.495.141.344-.062.917-.152 1.257a6.7 6.7 0 0 1-1.158 2.36c-.7.894-1.746 1.51-2.105 2.512-.043.026-.076.057-.082.094q-.043.254-.037.477c-.01.152-.01.312.01.484.037.29.2.497.422.632.64.623 1.806.471 2.3-.503.37-.373.46-.81.377-1.433.34-1.48.806-2.784 1.575-4.184.435-.79.744-1.466 1.007-2.324.026-.084.093-.12.185-.13.285.415.678.673 1.254.343q.038-.022.074-.046c1.233-.138 2.06-1.24 3.179-.944.368.195.683.424 1.01.629.62.616 1.106 1.641 1.605 2.325.424.58.616 1.169.747 1.87.322 1.735.51 2.853 2.053 3.858.616.4 1.307.6 1.974.203 2.643-1.575-2.266-5.791-3.116-6.963-.77-1.062-1.6-2.955-.886-4.21.175-.306.361-.526.553-.686a4.7 4.7 0 0 1 1.323-.257c.55.17 1.058.597 1.406.95.229.233.43.444.694.64.393.293 1.12.4 1.598.335.65-.09 1.321-.193 1.455-.929.075-.414-.707-.624-.954-.73-.403-.171-.33-.68-.249-1.011.153-.627 1.319-.338 1.745-.251 3.573.728 6.295 3.466 10.154 3.09.061-.006.575-.118.464-.238-.993-1.073-1.95-1.54-3.344-1.86m8.844 3.367c-.557-.041-1.117.13-1.675.04-.412-.066-.805-.406-1.137-.64-.382-.27-.815-.408-1.233-.612-.12-.06-.387.02-.523.124-.21.053-.403.19-.286.289a21 21 0 0 0 1.649 1.247c.552.378 1.394.63 1.807 1.152.467.59 1.227.598 1.8.078.545-.495.396-1.622-.402-1.678" fill="#00A79D"/><path d="M35.914 9.36c.145-.107.295-.21.428-.334.104-.095.173-.237.25-.353.03-.046.032-.135-.01-.175-.188-.176-.419-.276-.677-.184a.8.8 0 0 0-.268.159.3.3 0 0 0-.14.13c-.072.04-.129.1-.141.184a.15.15 0 0 0 .062.145c-.028.104-.058.208-.062.319-.011.28.415.218.558.11m14.914 24.996a.97.97 0 0 0-.65.018c-.14.056-.274.18-.387.241-.107.058-.236.184-.178.312a.65.65 0 0 0-.13.377c-.005.16.167.245.312.222.265-.043.551-.022.783-.176.214-.143.285-.51.378-.727a.192.192 0 0 0-.128-.267m-26.19 3.113c-.14.019-.267.056-.391.124-.062.035-.098.1-.14.151-.09.03-.177.075-.21.14-.033.07.063.08.15.078l-.007.004c-.487.385-.693.883-.378 1.456.074.135.436.006.53-.044.723-.388 1.203-1.086.72-1.873-.049-.081-.199-.047-.274-.036m3.632 6.102c.003-.063-.036-.103-.097-.124l-.018-.036c-.124-.215-.766.016-.671.18q.055.098.102.201c-.24 1.549-3.157 10.247-.988 9.864 1.518-.268 1.615-2.803 1.774-3.975.23-1.706.657-4.428-.107-6.051q.001-.03.005-.059m-15.866-7.787a.43.43 0 0 0-.184.159c-.004.009-.018.031-.031.054q-.064.003-.127.01c-.307.04-.53.219-.674.483-.022.044.026.078.06.087.368.106.705.218 1.08.076.327-.123.425-.445.568-.733q.015-.041-.018-.067c-.162-.225-.444-.186-.674-.07m-2.886-.362a2.3 2.3 0 0 0-.372.188c-.167.105-.009.127.177.11v.04a1 1 0 0 0-.345.046c-2.37 1.045-4.257 2.872-6.576 3.995-1.456-1.034-2.38 2.302.107 2.408.983.043 1.589-.957 2.105-1.623 1.505-1.942 3.784-3.07 5.443-4.864a.08.08 0 0 0 .03-.07l-.115-.235c-.06-.126-.366-.03-.454.005m.102-15.954q.016-.033-.014-.052a1.8 1.8 0 0 0-.451-.114c-1.036-.346-2.162-.685-3.223-.308-.051.018-.28.1-.202.185 1.004 1.096 2.871 1.724 3.89.29m6.225-.395c1.119.147 2.202.562 3.339.337.045-.01.49-.127.383-.225-.674-.604-1.661-.703-2.53-.712-.115-.002-.616.195-.517.246-.197.048-.393.11-.589.195-.041.018-.24.14-.086.16m1.971-17.79c.145.136.3.264.476.357.158.084.506.037.58-.156.082-.217.15-.437-.056-.6-.06-.047-.145-.066-.217-.086-.013-.003-.098-.037-.038-.009-.05-.023-.017 0-.045-.049-.037-.064-.116-.089-.205-.09-.22-.04-.528.088-.629.255-.103.171.014.265.134.378m-5.668.275c-.094-.161-.235-.283-.353-.424.033-.048.043-.101.006-.154a3 3 0 0 0-1.088-.959c-.133-.07-.685.019-.602.255.258.731.78 1.232 1.46 1.58.16.083.725-.043.577-.297m6.265 7.859c.187.132.336.289.476.469q.07.093.135.2v.43c0 .162.162.252.314.23.244-.033.454-.168.642-.323.154-.126.25-.31.15-.43l.005.001a.47.47 0 0 0-.468-.247q-.02.001-.04.007l-.027-.035a5 5 0 0 0-.2-.263 2.4 2.4 0 0 0-.473-.436c-.253-.178-.835.172-.514.397m6.152 3.418c-.148-.269-.432-.428-.58-.695q-.002-.02-.038-.029c-.073-.038-.217-.018-.353.028-.116.03-.22.075-.259.133-.017.018-.027.035-.02.048v.578l.018.022c.222.107.433.135.677.136.059 0 .622-.1.555-.221" fill="#00A79D"/></svg>